<?xml version="1.0" standalone="no"?>
<!DOCTYPE svg PUBLIC "-//W3C//DTD SVG 20010904//EN"
 "http://www.w3.org/TR/2001/REC-SVG-20010904/DTD/svg10.dtd">
<svg version="1.0" xmlns="http://www.w3.org/2000/svg"
 width="500.000000pt" height="500.000000pt" viewBox="0 0 500.000000 500.000000"
 preserveAspectRatio="xMidYMid meet">
<metadata>
Created by potrace 1.11, written by Peter Selinger 2001-2013
</metadata>
<g transform="translate(0.000000,500.000000) scale(0.100000,-0.100000)"
fill="#000000" stroke="none">
<path d="M1304 2416 c-35 -15 -44 -32 -44 -82 0 -28 11 -46 55 -94 65 -71 73
-114 23 -133 -23 -8 -48 18 -48 49 0 15 -6 24 -15 24 -24 0 -28 -24 -11 -63
26 -63 106 -64 132 -1 20 48 6 88 -51 144 -66 65 -71 130 -9 130 19 0 26 -7
31 -30 5 -28 21 -38 35 -24 10 9 -11 68 -29 82 -21 15 -30 15 -69 -2z"/>
<path d="M1582 2410 c-21 -19 -22 -30 -22 -160 0 -130 1 -141 22 -160 30 -27
73 -26 103 5 24 23 25 29 25 155 0 126 -1 132 -25 155 -30 31 -73 32 -103 5z
m88 -160 c0 -119 -2 -130 -20 -140 -15 -8 -24 -6 -40 10 -18 18 -20 33 -20
130 0 97 2 112 20 130 16 16 25 18 40 10 18 -10 20 -21 20 -140z"/>
<path d="M1870 2250 c0 -142 2 -170 15 -170 11 0 15 17 17 73 l3 72 38 3 c53
5 51 32 -3 32 l-41 0 3 63 3 62 48 3 c33 2 47 7 47 18 0 11 -15 14 -65 14
l-65 0 0 -170z"/>
<path d="M2140 2405 c0 -10 10 -15 30 -15 l30 0 0 -155 c0 -148 1 -155 20
-155 19 0 20 7 20 155 l0 155 30 0 c20 0 30 5 30 15 0 12 -16 15 -80 15 -64 0
-80 -3 -80 -15z"/>
<path d="M2444 2393 c3 -16 12 -82 21 -148 21 -165 21 -165 50 -165 14 0 25 3
25 8 1 20 29 195 33 198 2 3 10 -43 17 -101 13 -104 13 -105 39 -105 l27 0 18
143 c10 78 20 154 23 170 4 20 2 27 -10 27 -20 0 -23 -11 -38 -140 -6 -58 -15
-108 -19 -113 -3 -4 -12 43 -19 105 -15 138 -18 148 -40 148 -15 0 -19 -17
-31 -112 -20 -169 -24 -176 -39 -62 -22 175 -22 174 -43 174 -16 0 -19 -5 -14
-27z"/>
<path d="M2876 2273 c-15 -82 -30 -158 -33 -170 -4 -18 -1 -23 15 -23 16 0 21
7 24 33 3 31 5 32 48 32 42 0 45 -2 50 -30 3 -18 12 -31 23 -33 22 -4 22 -11
-13 173 -16 86 -30 159 -30 161 0 2 -13 4 -28 4 l-28 0 -28 -147z m75 -5 l15
-83 -34 -3 c-19 -2 -35 -2 -37 0 -5 6 29 168 35 168 4 0 14 -37 21 -82z"/>
<path d="M3170 2250 c0 -162 1 -170 20 -170 17 0 19 8 22 73 3 70 4 72 28 69
36 -4 50 -28 50 -89 0 -47 2 -53 21 -53 21 0 21 4 16 67 -3 47 -10 71 -22 79
-16 12 -16 14 -1 29 11 11 16 34 16 75 0 73 -19 90 -97 90 l-53 0 0 -170z
m112 117 c11 -17 10 -65 -2 -88 -7 -12 -21 -19 -40 -19 -30 0 -30 0 -30 58 0
32 3 62 7 66 10 10 56 -3 65 -17z"/>
<path d="M3490 2250 l0 -170 70 0 c54 0 70 3 70 14 0 11 -15 16 -52 18 l-53 3
0 60 0 60 43 3 c28 2 42 8 42 18 0 10 -13 14 -45 14 l-46 0 3 58 3 57 53 3
c37 2 52 7 52 18 0 11 -16 14 -70 14 l-70 0 0 -170z"/>
<path d="M2357 1918 c-27 -22 -37 -65 -37 -169 0 -118 15 -165 56 -175 15 -4
38 -3 53 2 44 16 52 46 49 187 -3 122 -4 130 -27 148 -27 22 -70 25 -94 7z
m77 -44 c3 -9 6 -67 6 -129 0 -89 -3 -117 -15 -129 -16 -15 -44 -11 -57 8 -9
13 -11 228 -2 250 4 9 18 16 34 16 16 0 30 -7 34 -16z"/>
<path d="M820 1750 l0 -170 51 0 c65 0 86 12 99 58 13 48 13 176 0 224 -13 46
-34 58 -99 58 l-51 0 0 -170z m112 117 c4 -6 8 -59 8 -117 0 -58 -4 -111 -8
-117 -4 -7 -22 -16 -40 -19 l-32 -6 0 142 0 143 32 -7 c18 -3 36 -12 40 -19z"/>
<path d="M1130 1750 l0 -170 70 0 c56 0 70 3 70 15 0 11 -12 15 -50 15 l-50 0
0 65 0 65 40 0 c29 0 40 4 40 15 0 11 -11 15 -40 15 l-40 0 0 60 0 60 50 0
c38 0 50 4 50 15 0 12 -14 15 -70 15 l-70 0 0 -170z"/>
<path d="M1420 1911 c0 -9 28 -162 51 -278 10 -49 13 -53 38 -53 l27 0 28 153
c15 83 30 160 33 170 3 12 -1 17 -15 17 -16 0 -22 -17 -42 -135 -13 -74 -26
-135 -29 -135 -4 0 -17 61 -31 135 -20 115 -26 135 -42 135 -10 0 -18 -4 -18
-9z"/>
<path d="M1750 1750 l0 -170 70 0 c56 0 70 3 70 15 0 11 -12 15 -50 15 l-50 0
0 65 0 65 40 0 c29 0 40 4 40 15 0 11 -11 15 -40 15 l-40 0 0 60 0 60 50 0
c38 0 50 4 50 15 0 12 -14 15 -70 15 l-70 0 0 -170z"/>
<path d="M2040 1750 l0 -170 70 0 c54 0 70 3 70 14 0 11 -14 16 -47 18 l-48 3
-3 153 c-2 144 -4 152 -22 152 -19 0 -20 -7 -20 -170z"/>
<path d="M2630 1750 c0 -163 1 -170 20 -170 18 0 20 7 20 70 l0 70 38 0 c56 0
72 22 72 98 0 82 -18 102 -95 102 l-55 0 0 -170z m112 117 c11 -17 10 -75 -2
-98 -7 -12 -21 -19 -40 -19 l-30 0 0 63 c0 35 3 67 7 71 10 10 56 -3 65 -17z"/>
<path d="M2940 1750 c0 -143 2 -170 15 -170 12 0 15 23 17 123 l3 122 25 -122
c20 -102 27 -123 42 -123 19 0 19 -1 48 144 11 55 22 102 25 104 3 3 5 -52 5
-121 0 -106 2 -127 15 -127 13 0 15 26 15 170 l0 170 -24 0 c-29 0 -27 3 -57
-148 -12 -62 -23 -111 -25 -109 -3 3 -54 242 -54 253 0 2 -11 4 -25 4 l-25 0
0 -170z"/>
<path d="M3310 1750 l0 -170 70 0 c56 0 70 3 70 15 0 11 -12 15 -50 15 l-50 0
0 65 0 65 40 0 c29 0 40 4 40 15 0 11 -11 15 -40 15 l-40 0 0 60 0 60 50 0
c38 0 50 4 50 15 0 12 -14 15 -70 15 l-70 0 0 -170z"/>
<path d="M3600 1751 c0 -164 1 -171 20 -171 19 0 20 7 21 128 l1 127 41 -127
c32 -102 44 -128 59 -128 17 0 18 12 18 170 0 144 -2 170 -15 170 -12 0 -15
-20 -16 -117 l-1 -118 -37 115 c-35 106 -39 115 -64 118 l-27 3 0 -170z"/>
<path d="M3910 1905 c0 -10 10 -15 30 -15 l30 0 0 -155 c0 -148 1 -155 20
-155 19 0 20 7 20 155 l0 155 30 0 c20 0 30 5 30 15 0 12 -16 15 -80 15 -64 0
-80 -3 -80 -15z"/>
</g>
</svg>
